<svg width="207" height="72" viewBox="0 0 207 72" fill="none" xmlns="http://www.w3.org/2000/svg">
<path fill-rule="evenodd" clip-rule="evenodd" d="M24.6546 27.9625C24.6552 28.2107 24.3854 28.3538 24.1978 28.1914C22.78 26.9645 18.8201 22.8105 21.8936 16.8189C23.7812 13.1393 26.4171 11.5754 28.9485 10.0735C30.7865 8.98298 32.5694 7.92518 33.9707 6.11391C34.5675 5.34255 35.8101 5.3346 36.1072 6.2635C37.5161 10.6692 36.2601 15.5871 34.9646 20.6595C33.7728 25.326 32.5475 30.1233 33.3331 34.7731C33.4223 35.3011 32.8497 35.7258 32.4004 35.4344C28.8147 33.1091 24.6045 29.1395 26.4438 21.6242C26.5296 21.2735 26.106 21.0849 25.9649 21.4173C25.0982 23.4592 24.6492 25.6855 24.6546 27.9625ZM23.3421 42.3474C23.5766 42.266 23.5875 41.9608 23.3723 41.8372C21.3976 40.7034 19.6941 39.2015 18.3591 37.4299C18.1418 37.1416 18.5169 36.8689 18.7777 37.1186C24.3665 42.4692 29.9094 40.8078 33.716 38.8652C34.193 38.6218 34.1115 37.9135 33.6096 37.7268C29.19 36.0822 25.648 32.6224 22.2027 29.2571C18.4576 25.5989 14.8266 22.0522 10.3066 21.0696C9.35366 20.8624 8.73923 21.9425 9.10886 22.845C9.97681 24.9642 10.0014 27.0371 10.0268 29.1742C10.0618 32.1173 10.0982 35.1821 12.3411 38.6565C15.9932 44.3141 21.5707 42.9617 23.3421 42.3474ZM48.6325 29.5828C48.398 29.6641 48.387 29.9693 48.6023 30.0929C50.577 31.2267 52.2805 32.7287 53.6155 34.5002C53.8328 34.7885 53.4576 35.0612 53.1968 34.8115C47.6081 29.461 42.0651 31.1223 38.2585 33.0649C37.7816 33.3083 37.863 34.0166 38.3649 34.2034C42.7845 35.8479 46.3265 39.3077 49.7719 42.6731C53.517 46.3312 57.148 49.8779 61.6679 50.8606C62.6209 51.0678 63.2353 49.9876 62.8657 49.0851C61.9977 46.9659 61.9731 44.893 61.9477 42.756C61.9127 39.8128 61.8763 36.7481 59.6334 33.2736C55.9813 27.616 50.4039 28.9685 48.6325 29.5828ZM47.7768 43.7387C47.5891 43.5763 47.3193 43.7194 47.3199 43.9676C47.3254 46.2447 46.8764 48.4709 46.0097 50.5128C45.8686 50.8452 45.4449 50.6566 45.5308 50.3059C47.3701 42.7907 43.1598 38.821 39.5742 36.4957C39.1249 36.2043 38.5523 36.629 38.6415 37.157C39.427 41.8068 38.2018 46.6042 37.01 51.2706C35.7145 56.3431 34.4585 61.2609 35.8674 65.6666C36.1645 66.5955 37.4071 66.5876 38.0039 65.8162C39.4052 64.005 41.1881 62.9472 43.0261 61.8566C45.5575 60.3548 48.1934 58.7909 50.0809 55.1112C53.1545 49.1196 49.1945 44.9657 47.7768 43.7387ZM34.6256 49.8162C34.8402 49.6916 35.0991 49.8537 35.0523 50.0974C34.6986 51.9387 33.0811 57.4451 26.3554 57.7791C22.225 57.9843 19.5527 56.4835 16.9863 55.0422C15.1229 53.9957 13.3154 52.9805 11.0461 52.6726C10.0797 52.5415 9.45151 51.4693 10.1074 50.7475C13.2184 47.3245 18.1054 45.9533 23.146 44.5391C27.7832 43.238 32.5504 41.9004 36.1845 38.8952C36.5972 38.5539 37.2513 38.8375 37.2236 39.3723C37.0027 43.6402 35.6699 49.2712 28.2419 51.4359C27.8952 51.5369 27.9438 51.9981 28.3022 51.9541C30.5038 51.6838 32.6563 50.9595 34.6256 49.8162ZM36.9223 21.8327C36.8755 22.0764 37.1343 22.2385 37.3489 22.1139C39.3182 20.9706 41.4707 20.2464 43.6724 19.976C44.0308 19.932 44.0793 20.3932 43.7327 20.4942C36.3046 22.6589 34.9719 28.29 34.7509 32.5579C34.7233 33.0926 35.3774 33.3762 35.79 33.035C39.4241 30.0297 44.1913 28.6922 48.8285 27.3911C53.8691 25.9768 58.7561 24.6056 61.8671 21.1826C62.523 20.4609 61.8948 19.3887 60.9284 19.2575C58.6592 18.9496 56.8516 17.9345 54.9882 16.888C52.4219 15.4467 49.7495 13.9458 45.6191 14.151C38.8934 14.485 37.276 19.9914 36.9223 21.8327Z" fill="#CECFDB"/>
<path fill-rule="evenodd" clip-rule="evenodd" d="M87.4067 52.7442H90.6875H91.8181H94.5669L97.8593 34.997L101.173 52.7442H103.966H105.052H108.333L113.942 19.2558H107.025L104.245 38.5141L100.818 19.2558H98.4463H97.3157H94.8994L91.5338 38.4694L88.7589 19.2558H81.7982L87.4067 52.7442ZM124.394 32.688V25.1899H136.195V19.2558H124.394H122.056H117.313V47.1628V52.7442H124.394H134.846L135.745 47.1628H124.394V38.392H134.324V32.688H124.394ZM152.773 25.1899V45.4186L151.48 52.7442H145.738V25.1899H137.993V19.2558H145.738H152.773H160.696V25.1899H152.773ZM169.574 25.1899V32.688H179.505V38.392H169.574V47.1628H175.194L174.182 52.7442H169.574H163.842H162.494V19.2558H167.236H169.574H181.375V25.1899H169.574ZM115.515 52.7442V45.3023H109.671V52.7442H115.515ZM142.039 45.3023V52.7442H136.195V45.3023H142.039ZM158.673 52.7442V45.3023H152.828V52.7442H158.673ZM181.375 45.3023V52.7442H175.531V45.3023H181.375ZM193.877 19.2558H183.173V52.7442H190.221V40.6921H192.947L197.667 52.7442H205.202V52.3992L199.623 38.7741C200.341 38.3519 200.99 37.8565 201.567 37.288C202.424 36.4447 203.089 35.3867 203.562 34.114C204.035 32.826 204.271 31.2466 204.271 29.3759C204.271 27.1679 203.85 25.3125 203.008 23.8099C202.18 22.3072 200.991 21.1725 199.44 20.4058C197.889 19.6392 196.034 19.2558 193.877 19.2558ZM190.221 34.781H193.7C194.498 34.781 195.155 34.5893 195.672 34.206C196.19 33.8226 196.574 33.2783 196.825 32.573C197.091 31.8523 197.224 31.0013 197.224 30.0199C197.224 29.0079 197.098 28.1416 196.847 27.4209C196.611 26.7002 196.249 26.1482 195.761 25.7649C195.288 25.3815 194.66 25.1899 193.877 25.1899H190.221V34.781Z" fill="#CECFDB"/>
</svg>
